<svg width="90" height="98" viewBox="0 0 90 98" fill="none" xmlns="http://www.w3.org/2000/svg">
<g clip-path="url(#clip0_1_8)">
<path d="M90 0H0V98H90V0Z" fill="#F56039"/>
<path d="M45 15C39.6599 15 34.4397 16.4369 29.9996 19.129C25.5595 21.8211 22.0988 25.6475 20.0553 30.1243C18.0117 34.601 17.477 39.5272 18.5188 44.2797C19.5606 49.0322 22.1321 53.3977 25.9081 56.8241C29.6841 60.2505 34.4951 62.5839 39.7326 63.5292C44.9701 64.4746 50.3988 63.9894 55.3325 62.135C60.2661 60.2807 64.4829 57.1405 67.4497 53.1115C70.4165 49.0825 72 44.3456 72 39.5C71.9918 33.0045 69.1446 26.7771 64.0829 22.1841C59.0211 17.591 52.1583 15.0074 45 15ZM63.4526 26.7096L57.3922 36.1288L46.1479 18.4496C49.5204 18.6029 52.8157 19.4212 55.8042 20.8477C58.7927 22.2742 61.4027 24.2746 63.4526 26.7096ZM39.9765 47.48L34.8388 39.4804L39.9209 31.52H50.1038L55.2168 39.5504L50.1038 47.48H39.9765ZM41.8803 18.6092L47.8975 28.0788H25.4983C27.3145 25.5209 29.7194 23.35 32.5477 21.7154C35.3761 20.0808 38.561 19.0211 41.8834 18.6092H41.8803ZM23.5111 31.4892H35.5454L24.3257 49.1012C22.6347 46.1266 21.7543 42.8274 21.7584 39.4804C21.7721 36.7493 22.3673 34.0463 23.5111 31.52V31.4892ZM26.6308 52.3604L32.6572 42.8992L37.0203 49.72C37.1054 49.9712 37.2532 50.2012 37.4524 50.392L43.9879 60.57C40.6135 60.4333 37.3126 59.6307 34.3149 58.2182C31.3173 56.8057 28.695 54.8172 26.6308 52.3912V52.3604ZM48.2307 60.3516L42.1611 50.9212H64.511C62.6985 53.4572 60.3086 55.6116 57.5021 57.2397C54.6956 58.8677 51.5374 59.9317 48.24 60.36L48.2307 60.3516ZM66.4797 47.4716H54.4454L65.6959 29.9716C67.1996 32.6679 68.0467 35.626 68.1798 38.6454C68.3129 41.6649 67.7288 44.675 66.4673 47.4716H66.4797Z" fill="white"/>
<path d="M17.1789 83.7423L15.9495 80.8052V83.7423H13.9128V75.5554H16.9404C17.4056 75.5387 17.8674 75.6595 18.289 75.9081C18.6382 76.1159 18.9304 76.45 19.1284 76.8678C19.3182 77.2844 19.4149 77.7579 19.4083 78.2381C19.4137 78.7565 19.2867 79.2633 19.0459 79.6835C18.7877 80.1238 18.4218 80.4448 18.0046 80.597L19.4174 83.7307L17.1789 83.7423ZM15.9495 79.0938H16.7569C16.9173 79.1099 17.0766 79.0479 17.2018 78.9203C17.2548 78.8511 17.2953 78.7682 17.3207 78.6774C17.346 78.5866 17.3555 78.49 17.3486 78.3942C17.3525 78.3008 17.3411 78.2075 17.3151 78.1199C17.289 78.0324 17.2489 77.9525 17.1972 77.8854C17.0769 77.7539 16.9204 77.6875 16.7615 77.7004H15.9495V79.0938Z" fill="white"/>
<path d="M24.1147 77.5906V78.6081H26.133V80.5392H24.1147V81.6956H26.4083V83.7423H22.078V75.5554H26.4083V77.579L24.1147 77.5906Z" fill="white"/>
<path d="M33.9266 82.5975C33.7201 82.9907 33.4289 83.3016 33.0871 83.4937C32.6747 83.7252 32.2265 83.8378 31.7752 83.8232C31.0927 83.8586 30.4191 83.6175 29.8532 83.1352C29.6007 82.9019 29.395 82.5974 29.2524 82.246C29.1098 81.8947 29.0344 81.5062 29.0321 81.1116H31.1926C31.2225 81.5828 31.3899 81.817 31.6881 81.817C31.7794 81.8221 31.8691 81.7851 31.9403 81.7129C31.9721 81.6764 31.9972 81.6317 32.0138 81.5818C32.0304 81.5318 32.0382 81.4779 32.0367 81.4238C32.0361 81.3283 32.0143 81.2349 31.9738 81.1542C31.9332 81.0734 31.8756 81.0086 31.8073 80.9671C31.5642 80.8112 31.311 80.6816 31.0504 80.5797C30.6987 80.4419 30.3566 80.2678 30.0275 80.0593C29.7447 79.8714 29.5011 79.602 29.3165 79.273C29.1146 78.8654 29.0095 78.3935 29.0136 77.913C29.0177 77.4325 29.1307 76.9635 29.3394 76.5614C29.5671 76.1787 29.8754 75.8842 30.2293 75.7115C30.6342 75.5131 31.0656 75.415 31.5 75.4224C32.1612 75.3784 32.8147 75.619 33.3532 76.1047C33.585 76.3431 33.7725 76.6426 33.9025 76.9823C34.0325 77.3219 34.1018 77.6934 34.1055 78.0704H31.9128C31.883 77.6397 31.7431 77.4229 31.4908 77.4229C31.4131 77.4203 31.3375 77.4555 31.2798 77.5212C31.2512 77.5598 31.2292 77.6054 31.215 77.655C31.2008 77.7047 31.1948 77.7575 31.1972 77.8103C31.1994 77.9024 31.222 77.9919 31.2625 78.0686C31.3031 78.1452 31.3599 78.206 31.4266 78.2439C31.6604 78.3993 31.9044 78.5289 32.1559 78.6313C32.5096 78.7842 32.8544 78.9678 33.1881 79.1805C33.4716 79.3744 33.7164 79.6473 33.9037 79.9784C34.1185 80.374 34.2263 80.8465 34.211 81.3255C34.2172 81.7755 34.1183 82.2178 33.9266 82.5975Z" fill="white"/>
<path d="M41.7936 75.9543C42.2959 76.3066 42.7128 76.8242 43 77.4518C43.2935 78.1146 43.4475 78.8609 43.4475 79.6199C43.4475 80.3789 43.2935 81.1253 43 81.7881C42.7125 82.4189 42.2938 82.9387 41.789 83.2913C41.2746 83.6479 40.6971 83.8348 40.1101 83.8348C39.5231 83.8348 38.9456 83.6479 38.4312 83.2913C37.926 82.9373 37.5061 82.4179 37.2156 81.7881C36.9191 81.1266 36.7634 80.3797 36.7634 79.6199C36.7634 78.8602 36.9191 78.1133 37.2156 77.4518C37.5067 76.8241 37.9266 76.3068 38.4312 75.9543C38.9473 75.6014 39.5252 75.4165 40.1124 75.4165C40.6996 75.4165 41.2775 75.6014 41.7936 75.9543ZM39.1697 78.267C38.9361 78.6478 38.8188 79.1219 38.8395 79.6026C38.8192 80.0797 38.9365 80.5499 39.1697 80.9266C39.2931 81.0825 39.4397 81.2063 39.601 81.2907C39.7624 81.3751 39.9354 81.4185 40.1101 81.4185C40.2848 81.4185 40.4578 81.3751 40.6192 81.2907C40.7805 81.2063 40.9271 81.0825 41.0505 80.9266C41.2837 80.5499 41.401 80.0797 41.3807 79.6026C41.4013 79.1219 41.2841 78.6478 41.0505 78.267C40.9271 78.1111 40.7805 77.9874 40.6192 77.9029C40.4578 77.8185 40.2848 77.7751 40.1101 77.7751C39.9354 77.7751 39.7624 77.8185 39.601 77.9029C39.4397 77.9874 39.2931 78.1111 39.1697 78.267Z" fill="white"/>
<path d="M48.1881 75.5554V80.1808C48.1737 80.4987 48.243 80.8137 48.3853 81.0769C48.463 81.1921 48.5614 81.2821 48.6723 81.3395C48.7833 81.3968 48.9035 81.4198 49.0229 81.4065C49.1443 81.4189 49.2664 81.3955 49.3794 81.3383C49.4924 81.2811 49.5934 81.1917 49.6743 81.0769C49.8246 80.8178 49.8992 80.5012 49.8853 80.1808V75.5554H51.9129V80.1808C51.9295 80.8773 51.7964 81.5665 51.5275 82.1754C51.2825 82.7136 50.915 83.1466 50.4725 83.4185C50.0064 83.7018 49.4944 83.8443 48.9771 83.8348C48.4698 83.8474 47.9676 83.7046 47.5138 83.4185C47.0899 83.1431 46.7427 82.7116 46.5184 82.1812C46.2666 81.5633 46.1435 80.875 46.1606 80.1808V75.5554H48.1881Z" fill="white"/>
<path d="M58.078 83.7423L56.8486 80.8052V83.7423H54.8165V75.5554H57.844C58.3092 75.5396 58.7709 75.6604 59.1927 75.9081C59.5419 76.1159 59.8341 76.45 60.0321 76.8678C60.2209 77.2849 60.3175 77.758 60.3119 78.2381C60.3164 78.7563 60.1895 79.2627 59.9496 79.6835C59.6909 80.1232 59.3252 80.444 58.9083 80.597L60.3211 83.7423H58.078ZM56.8486 79.0938H57.656C57.8142 79.1092 57.9713 79.0494 58.0963 78.9261C58.1493 78.8568 58.1899 78.774 58.2152 78.6832C58.2405 78.5924 58.25 78.4958 58.2431 78.4C58.247 78.3066 58.2356 78.2132 58.2096 78.1257C58.1835 78.0381 58.1434 77.9583 58.0918 77.8912C57.9714 77.7597 57.8149 77.6932 57.656 77.7062H56.8486V79.0938Z" fill="white"/>
<path d="M67.5138 75.8734C67.945 76.1267 68.3177 76.5148 68.5964 77.0008C68.8811 77.5072 69.0709 78.0884 69.1514 78.7006H67.0046C66.9157 78.4449 66.7709 78.2263 66.5872 78.0704C66.4032 77.9191 66.1876 77.8406 65.9679 77.8449C65.8116 77.8376 65.6561 77.8779 65.5148 77.9625C65.3734 78.047 65.2503 78.1733 65.156 78.3306C64.963 78.7209 64.8608 79.1716 64.8608 79.6315C64.8608 80.0914 64.963 80.542 65.156 80.9324C65.2503 81.0897 65.3734 81.216 65.5148 81.3005C65.6561 81.3851 65.8116 81.4254 65.9679 81.418C66.1876 81.4224 66.4032 81.3439 66.5872 81.1925C66.7717 81.0377 66.9167 80.8188 67.0046 80.5623H69.1514C69.0709 81.1746 68.8811 81.7558 68.5964 82.2622C68.3177 82.7482 67.945 83.1363 67.5138 83.3896C67.0408 83.6635 66.525 83.7999 66.0046 83.7885C65.4088 83.8077 64.8197 83.6261 64.2982 83.2624C63.8197 82.9198 63.432 82.407 63.1835 81.7881C62.9255 81.1116 62.7915 80.3706 62.7915 79.6199C62.7915 78.8693 62.9255 78.1283 63.1835 77.4518C63.4333 76.8341 63.8207 76.3217 64.2982 75.9775C64.8201 75.6151 65.4089 75.4336 66.0046 75.4513C66.5264 75.4472 67.0423 75.5915 67.5138 75.8734Z" fill="white"/>
<path d="M73.9404 77.5906V78.6081H75.9587V80.5392H73.9404V81.6956H76.234V83.7423H71.9037V75.5554H76.234V77.579L73.9404 77.5906Z" fill="white"/>
</g>
<defs>
<clipPath id="clip0_1_8">
<rect width="90" height="98" fill="white"/>
</clipPath>
</defs>
</svg>
