<svg width="22" height="20" viewBox="0 0 22 20" fill="none" xmlns="http://www.w3.org/2000/svg">
<path d="M21.766 7.94025L11.3377 0.304832C11.1366 0.157621 10.8634 0.157621 10.6624 0.304832L0.233967 7.94025C-0.0207519 8.12678 -0.0760956 8.48445 0.110431 8.73917C0.296959 8.99389 0.654673 9.04914 0.909348 8.8627L11 1.47448L21.0906 8.86266C21.1924 8.93721 21.3106 8.97309 21.4278 8.97309C21.6038 8.97309 21.7775 8.89209 21.8895 8.73913C22.0761 8.48445 22.0207 8.12678 21.766 7.94025Z" fill="#524B9A"/>
<path d="M19.0028 8.99208C18.6871 8.99208 18.4312 9.248 18.4312 9.56369V18.6623H13.8583V13.6957C13.8583 12.1196 12.5761 10.8374 11 10.8374C9.42404 10.8374 8.14177 12.1197 8.14177 13.6957V18.6623H3.5689V9.56374C3.5689 9.24805 3.31294 8.99212 2.99729 8.99212C2.68164 8.99212 2.42567 9.24805 2.42567 9.56374V19.234C2.42567 19.5497 2.68164 19.8056 2.99729 19.8056H8.71338C9.01399 19.8056 9.25998 19.5734 9.28276 19.2785C9.28413 19.2651 9.28499 19.2505 9.28499 19.234V13.6957C9.28499 12.75 10.0543 11.9807 11 11.9807C11.9457 11.9807 12.7151 12.7501 12.7151 13.6957V19.234C12.7151 19.2504 12.716 19.2648 12.7173 19.278C12.7399 19.573 12.9859 19.8056 13.2867 19.8056H19.0028C19.3185 19.8056 19.5744 19.5497 19.5744 19.234V9.56374C19.5744 9.248 19.3185 8.99208 19.0028 8.99208Z" fill="#524B9A"/>
</svg>
