<svg width="25" height="21" viewBox="0 0 25 21" fill="none" xmlns="http://www.w3.org/2000/svg">
<path d="M24.7558 19.929L18.6859 14.8257C20.3142 13.2519 21.3 11.1984 21.3 8.9541C21.3 4.01375 16.5205 0 10.65 0C4.77394 0 0 4.0184 0 8.9541C0 13.8898 4.77948 17.9082 10.65 17.9082C13.3194 17.9082 15.7618 17.0794 17.6337 15.7104L23.7036 20.8137C23.8476 20.9348 24.0414 21 24.2297 21C24.418 21 24.6118 20.9395 24.7558 20.8137C25.0438 20.5716 25.0438 20.1712 24.7558 19.929ZM1.48978 8.9541C1.48978 4.70754 5.59914 1.25721 10.6445 1.25721C15.6953 1.25721 19.7991 4.7122 19.7991 8.9541C19.7991 13.196 15.6953 16.6557 10.6445 16.6557C5.59914 16.6557 1.48978 13.2007 1.48978 8.9541Z" fill="#D9D9D9"/>
</svg>
